{
  "accessors": [
    {
      "name": "Body_1_positions",
      "componentType": 5126,
      "count": 537,
      "min": [
        -0.29429998993873596,
        -0.8285999894142151,
        -0.13009999692440033
      ],
      "max": [
        0.3246999979019165,
        -0.03700000047683716,
        0.14190000295639038
      ],
      "type": "VEC3",
      "bufferView": 0,
      "byteOffset": 0
    },
    {
      "name": "Body_1_normals",
      "componentType": 5126,
      "count": 537,
      "min": [
        -1,
        -1,
        -1
      ],
      "max": [
        0.9976999759674072,
        1,
        0.9945999979972839
      ],
      "type": "VEC3",
      "bufferView": 0,
      "byteOffset": 9756
    },
    {
      "name": "Body_1_texcoords",
      "componentType": 5126,
      "count": 537,
      "min": [
        -0.125,
        0
      ],
      "max": [
        1,
        1
      ],
      "type": "VEC2",
      "bufferView": 1,
      "byteOffset": 0
    },
    {
      "name": "Body_1_0_indices",
      "componentType": 5123,
      "count": 1389,
      "min": [
        0
      ],
      "max": [
        536
      ],
      "type": "SCALAR",
      "bufferView": 2,
      "byteOffset": 0
    },
    {
      "name": "Hat_1_positions",
      "componentType": 5126,
      "count": 238,
      "min": [
        -0.14390000700950623,
        0.0215000007301569,
        -0.17249999940395355
      ],
      "max": [
        0.1712999939918518,
        0.1940000057220459,
        0.17329999804496765
      ],
      "type": "VEC3",
      "bufferView": 0,
      "byteOffset": 6444
    },
    {
      "name": "Hat_1_normals",
      "componentType": 5126,
      "count": 238,
      "min": [
        -0.9990000128746033,
        -0.998199999332428,
        -0.9839000105857849
      ],
      "max": [
        0.9990000128746033,
        0.992900013923645,
        0.9991000294685364
      ],
      "type": "VEC3",
      "bufferView": 0,
      "byteOffset": 16200
    },
    {
      "name": "Hat_1_texcoords",
      "componentType": 5126,
      "count": 238,
      "min": [
        -0.125,
        0
      ],
      "max": [
        0.875,
        1
      ],
      "type": "VEC2",
      "bufferView": 1,
      "byteOffset": 4296
    },
    {
      "name": "Hat_1_0_indices",
      "componentType": 5123,
      "count": 336,
      "min": [
        0
      ],
      "max": [
        237
      ],
      "type": "SCALAR",
      "bufferView": 2,
      "byteOffset": 2780
    },
    {
      "name": "Cigar_1_positions",
      "componentType": 5126,
      "count": 38,
      "min": [
        -0.055799998342990875,
        -0.03959999978542328,
        -0.16019999980926514
      ],
      "max": [
        -0.002099999925121665,
        -0.018400000408291817,
        -0.10660000145435333
      ],
      "type": "VEC3",
      "bufferView": 0,
      "byteOffset": 9300
    },
    {
      "name": "Cigar_1_normals",
      "componentType": 5126,
      "count": 38,
      "min": [
        -0.711899995803833,
        -0.9516000151634216,
        -0.7031999826431274
      ],
      "max": [
        0.711899995803833,
        0.9516000151634216,
        0.7031999826431274
      ],
      "type": "VEC3",
      "bufferView": 0,
      "byteOffset": 19056
    },
    {
      "name": "Cigar_1_texcoords",
      "componentType": 5126,
      "count": 38,
      "min": [
        -0.125,
        0
      ],
      "max": [
        0.875,
        1
      ],
      "type": "VEC2",
      "bufferView": 1,
      "byteOffset": 6200
    },
    {
      "name": "Cigar_1_0_indices",
      "componentType": 5123,
      "count": 96,
      "min": [
        0
      ],
      "max": [
        37
      ],
      "type": "SCALAR",
      "bufferView": 2,
      "byteOffset": 3452
    }
  ],
  "asset": {
    "generator": "obj2gltf",
    "version": "2.0"
  },
  "buffers": [
    {
      "name": "PlayerBody_02",
      "byteLength": 29660,
      "uri": "data:application/octet-stream;base64,"
    }
  ],
  "bufferViews": [
    {
      "name": "bufferView_0",
      "buffer": 0,
      "byteLength": 19512,
      "byteOffset": 0,
      "byteStride": 12,
      "target": 34962
    },
    {
      "name": "bufferView_1",
      "buffer": 0,
      "byteLength": 6504,
      "byteOffset": 19512,
      "byteStride": 8,
      "target": 34962
    },
    {
      "name": "bufferView_2",
      "buffer": 0,
      "byteLength": 3644,
      "byteOffset": 26016,
      "target": 34963
    }
  ],
  "materials": [
    {
      "name": "Coat",
      "pbrMetallicRoughness": {
        "baseColorFactor": [
          0.0314,
          0.0314,
          0.0314,
          1
        ],
        "metallicFactor": 0,
        "roughnessFactor": 0.989
      },
      "emissiveFactor": [
        0,
        0,
        0
      ],
      "alphaMode": "OPAQUE",
      "doubleSided": false
    }
  ],
  "meshes": [
    {
      "name": "Body_1",
      "primitives": [
        {
          "attributes": {
            "POSITION": 0,
            "NORMAL": 1,
            "TEXCOORD_0": 2
          },
          "indices": 3,
          "material": 0,
          "mode": 4
        }
      ]
    },
    {
      "name": "Hat_1",
      "primitives": [
        {
          "attributes": {
            "POSITION": 4,
            "NORMAL": 5,
            "TEXCOORD_0": 6
          },
          "indices": 7,
          "material": 0,
          "mode": 4
        }
      ]
    },
    {
      "name": "Cigar_1",
      "primitives": [
        {
          "attributes": {
            "POSITION": 8,
            "NORMAL": 9,
            "TEXCOORD_0": 10
          },
          "indices": 11,
          "material": 0,
          "mode": 4
        }
      ]
    }
  ],
  "nodes": [
    {
      "name": "Body",
      "mesh": 0
    },
    {
      "name": "Hat",
      "mesh": 1
    },
    {
      "name": "Cigar",
      "mesh": 2
    }
  ],
  "scene": 0,
  "scenes": [
    {
      "nodes": [
        0,
        1,
        2
      ]
    }
  ]
}
