{
  "accessors": [
    {
      "name": "Cylinder003_1_positions",
      "componentType": 5126,
      "count": 74,
      "min": [
        -15.145400047302246,
        -26.6875,
        -6.176599979400635
      ],
      "max": [
        0.5236999988555908,
        5.211599826812744,
        5.577700138092041
      ],
      "type": "VEC3",
      "bufferView": 0,
      "byteOffset": 0
    },
    {
      "name": "Cylinder003_1_normals",
      "componentType": 5126,
      "count": 74,
      "min": [
        -0.9922999739646912,
        -0.98580002784729,
        -0.9984999895095825
      ],
      "max": [
        0.26100000739097595,
        0.9804999828338623,
        0.9962000250816345
      ],
      "type": "VEC3",
      "bufferView": 0,
      "byteOffset": 3432
    },
    {
      "name": "Cylinder003_1_texcoords",
      "componentType": 5126,
      "count": 74,
      "min": [
        -0.125,
        0
      ],
      "max": [
        0.875,
        1
      ],
      "type": "VEC2",
      "bufferView": 1,
      "byteOffset": 0
    },
    {
      "name": "Cylinder003_1_0_indices",
      "componentType": 5123,
      "count": 252,
      "min": [
        0
      ],
      "max": [
        73
      ],
      "type": "SCALAR",
      "bufferView": 2,
      "byteOffset": 0
    },
    {
      "name": "Cylinder005_1_positions",
      "componentType": 5126,
      "count": 32,
      "min": [
        -6.151100158691406,
        1.003999948501587,
        -6.863500118255615
      ],
      "max": [
        6.151100158691406,
        7.098899841308594,
        5.383699893951416
      ],
      "type": "VEC3",
      "bufferView": 0,
      "byteOffset": 888
    },
    {
      "name": "Cylinder005_1_normals",
      "componentType": 5126,
      "count": 32,
      "min": [
        -0.7764000296592712,
        -0.8578000068664551,
        -0.9451000094413757
      ],
      "max": [
        0.7763000130653381,
        0.9397000074386597,
        0.9451000094413757
      ],
      "type": "VEC3",
      "bufferView": 0,
      "byteOffset": 4320
    },
    {
      "name": "Cylinder005_1_texcoords",
      "componentType": 5126,
      "count": 32,
      "min": [
        -0.125,
        0
      ],
      "max": [
        0.875,
        1
      ],
      "type": "VEC2",
      "bufferView": 1,
      "byteOffset": 592
    },
    {
      "name": "Cylinder005_1_0_indices",
      "componentType": 5123,
      "count": 132,
      "min": [
        0
      ],
      "max": [
        31
      ],
      "type": "SCALAR",
      "bufferView": 2,
      "byteOffset": 504
    },
    {
      "name": "Cylinder006_1_positions",
      "componentType": 5126,
      "count": 74,
      "min": [
        -0.5236999988555908,
        -26.6875,
        -6.176599979400635
      ],
      "max": [
        15.145400047302246,
        5.211599826812744,
        5.577700138092041
      ],
      "type": "VEC3",
      "bufferView": 0,
      "byteOffset": 1272
    },
    {
      "name": "Cylinder006_1_normals",
      "componentType": 5126,
      "count": 74,
      "min": [
        -0.26100000739097595,
        -0.98580002784729,
        -0.9984999895095825
      ],
      "max": [
        0.9922999739646912,
        0.9804999828338623,
        0.9962000250816345
      ],
      "type": "VEC3",
      "bufferView": 0,
      "byteOffset": 4704
    },
    {
      "name": "Cylinder006_1_texcoords",
      "componentType": 5126,
      "count": 74,
      "min": [
        -0.125,
        0
      ],
      "max": [
        0.875,
        1
      ],
      "type": "VEC2",
      "bufferView": 1,
      "byteOffset": 848
    },
    {
      "name": "Cylinder006_1_0_indices",
      "componentType": 5123,
      "count": 252,
      "min": [
        0
      ],
      "max": [
        73
      ],
      "type": "SCALAR",
      "bufferView": 2,
      "byteOffset": 768
    },
    {
      "name": "Cylinder007_1_positions",
      "componentType": 5126,
      "count": 74,
      "min": [
        21.769899368286133,
        -26.6875,
        -6.176599979400635
      ],
      "max": [
        37.43899917602539,
        5.211599826812744,
        5.577700138092041
      ],
      "type": "VEC3",
      "bufferView": 0,
      "byteOffset": 2160
    },
    {
      "name": "Cylinder007_1_normals",
      "componentType": 5126,
      "count": 74,
      "min": [
        -0.26100000739097595,
        -0.98580002784729,
        -0.9984999895095825
      ],
      "max": [
        0.9922999739646912,
        0.9804999828338623,
        0.9962000250816345
      ],
      "type": "VEC3",
      "bufferView": 0,
      "byteOffset": 5592
    },
    {
      "name": "Cylinder007_1_texcoords",
      "componentType": 5126,
      "count": 74,
      "min": [
        -0.125,
        0
      ],
      "max": [
        0.875,
        1
      ],
      "type": "VEC2",
      "bufferView": 1,
      "byteOffset": 1440
    },
    {
      "name": "Cylinder007_1_0_indices",
      "componentType": 5123,
      "count": 252,
      "min": [
        0
      ],
      "max": [
        73
      ],
      "type": "SCALAR",
      "bufferView": 2,
      "byteOffset": 1272
    },
    {
      "name": "Plane001_1_positions",
      "componentType": 5126,
      "count": 32,
      "min": [
        -10,
        0,
        -10
      ],
      "max": [
        10,
        6.125199794769287,
        10
      ],
      "type": "VEC3",
      "bufferView": 0,
      "byteOffset": 3048
    },
    {
      "name": "Plane001_1_normals",
      "componentType": 5126,
      "count": 32,
      "min": [
        -0.707099974155426,
        0,
        -0.707099974155426
      ],
      "max": [
        0.707099974155426,
        0.9045000076293945,
        0.707099974155426
      ],
      "type": "VEC3",
      "bufferView": 0,
      "byteOffset": 6480
    },
    {
      "name": "Plane001_1_texcoords",
      "componentType": 5126,
      "count": 32,
      "min": [
        0,
        0
      ],
      "max": [
        1,
        1
      ],
      "type": "VEC2",
      "bufferView": 1,
      "byteOffset": 2032
    },
    {
      "name": "Plane001_1_0_indices",
      "componentType": 5123,
      "count": 150,
      "min": [
        0
      ],
      "max": [
        31
      ],
      "type": "SCALAR",
      "bufferView": 2,
      "byteOffset": 1776
    }
  ],
  "asset": {
    "generator": "obj2gltf",
    "version": "2.0"
  },
  "buffers": [
    {
      "name": "TestBox",
      "byteLength": 11228,
      "uri": "data:application/octet-stream;base64,"
    }
  ],
  "bufferViews": [
    {
      "name": "bufferView_0",
      "buffer": 0,
      "byteLength": 6864,
      "byteOffset": 0,
      "byteStride": 12,
      "target": 34962
    },
    {
      "name": "bufferView_1",
      "buffer": 0,
      "byteLength": 2288,
      "byteOffset": 6864,
      "byteStride": 8,
      "target": 34962
    },
    {
      "name": "bufferView_2",
      "buffer": 0,
      "byteLength": 2076,
      "byteOffset": 9152,
      "target": 34963
    }
  ],
  "materials": [
    {
      "name": "wire_177027088",
      "pbrMetallicRoughness": {
        "baseColorFactor": [
          0.6941,
          0.1059,
          0.3451,
          1
        ],
        "metallicFactor": 0,
        "roughnessFactor": 0.968
      },
      "emissiveFactor": [
        0,
        0,
        0
      ],
      "alphaMode": "OPAQUE",
      "doubleSided": false
    },
    {
      "name": "wire_148177027",
      "pbrMetallicRoughness": {
        "baseColorFactor": [
          0.5804,
          0.6941,
          0.1059,
          1
        ],
        "metallicFactor": 0,
        "roughnessFactor": 0.968
      },
      "emissiveFactor": [
        0,
        0,
        0
      ],
      "alphaMode": "OPAQUE",
      "doubleSided": false
    },
    {
      "name": "Material__25",
      "pbrMetallicRoughness": {
        "baseColorFactor": [
          0.1922,
          0.1922,
          0.1922,
          1
        ],
        "metallicFactor": 0,
        "roughnessFactor": 0.99
      },
      "emissiveFactor": [
        0,
        0,
        0
      ],
      "alphaMode": "OPAQUE",
      "doubleSided": false
    }
  ],
  "meshes": [
    {
      "name": "Cylinder003_1",
      "primitives": [
        {
          "attributes": {
            "POSITION": 0,
            "NORMAL": 1,
            "TEXCOORD_0": 2
          },
          "indices": 3,
          "material": 0,
          "mode": 4
        }
      ]
    },
    {
      "name": "Cylinder005_1",
      "primitives": [
        {
          "attributes": {
            "POSITION": 4,
            "NORMAL": 5,
            "TEXCOORD_0": 6
          },
          "indices": 7,
          "material": 1,
          "mode": 4
        }
      ]
    },
    {
      "name": "Cylinder006_1",
      "primitives": [
        {
          "attributes": {
            "POSITION": 8,
            "NORMAL": 9,
            "TEXCOORD_0": 10
          },
          "indices": 11,
          "material": 0,
          "mode": 4
        }
      ]
    },
    {
      "name": "Cylinder007_1",
      "primitives": [
        {
          "attributes": {
            "POSITION": 12,
            "NORMAL": 13,
            "TEXCOORD_0": 14
          },
          "indices": 15,
          "material": 0,
          "mode": 4
        }
      ]
    },
    {
      "name": "Plane001_1",
      "primitives": [
        {
          "attributes": {
            "POSITION": 16,
            "NORMAL": 17,
            "TEXCOORD_0": 18
          },
          "indices": 19,
          "material": 2,
          "mode": 4
        }
      ]
    }
  ],
  "nodes": [
    {
      "name": "Cylinder003",
      "mesh": 0
    },
    {
      "name": "Cylinder005",
      "mesh": 1
    },
    {
      "name": "Cylinder006",
      "mesh": 2
    },
    {
      "name": "Cylinder007",
      "mesh": 3
    },
    {
      "name": "Plane001",
      "mesh": 4
    }
  ],
  "scene": 0,
  "scenes": [
    {
      "nodes": [
        0,
        1,
        2,
        3,
        4
      ]
    }
  ]
}
