{
  "accessors": [
    {
      "name": "Body_1_positions",
      "componentType": 5126,
      "count": 266,
      "min": [
        -0.29429998993873596,
        0.652400016784668,
        -0.13009999692440033
      ],
      "max": [
        0.3246999979019165,
        1.444100022315979,
        0.14190000295639038
      ],
      "type": "VEC3",
      "bufferView": 0,
      "byteOffset": 0
    },
    {
      "name": "Body_1_normals",
      "componentType": 5126,
      "count": 266,
      "min": [
        -0.9988999962806702,
        -0.9753999710083008,
        -0.9998000264167786
      ],
      "max": [
        0.9937000274658203,
        1,
        0.9986000061035156
      ],
      "type": "VEC3",
      "bufferView": 0,
      "byteOffset": 4272
    },
    {
      "name": "Body_1_texcoords",
      "componentType": 5126,
      "count": 266,
      "min": [
        -0.125,
        0
      ],
      "max": [
        1,
        1
      ],
      "type": "VEC2",
      "bufferView": 1,
      "byteOffset": 0
    },
    {
      "name": "Body_1_0_indices",
      "componentType": 5123,
      "count": 1389,
      "min": [
        0
      ],
      "max": [
        265
      ],
      "type": "SCALAR",
      "bufferView": 2,
      "byteOffset": 0
    },
    {
      "name": "Hat_1_positions",
      "componentType": 5126,
      "count": 69,
      "min": [
        -0.14390000700950623,
        1.502500057220459,
        -0.17249999940395355
      ],
      "max": [
        0.1712999939918518,
        1.6750999689102173,
        0.17329999804496765
      ],
      "type": "VEC3",
      "bufferView": 0,
      "byteOffset": 3192
    },
    {
      "name": "Hat_1_normals",
      "componentType": 5126,
      "count": 69,
      "min": [
        -0.8222000002861023,
        -0.9847999811172485,
        -0.7821999788284302
      ],
      "max": [
        0.8222000002861023,
        0.9811999797821045,
        0.8306999802589417
      ],
      "type": "VEC3",
      "bufferView": 0,
      "byteOffset": 7464
    },
    {
      "name": "Hat_1_texcoords",
      "componentType": 5126,
      "count": 69,
      "min": [
        -0.125,
        0
      ],
      "max": [
        0.875,
        1
      ],
      "type": "VEC2",
      "bufferView": 1,
      "byteOffset": 2128
    },
    {
      "name": "Hat_1_0_indices",
      "componentType": 5123,
      "count": 336,
      "min": [
        0
      ],
      "max": [
        68
      ],
      "type": "SCALAR",
      "bufferView": 2,
      "byteOffset": 2780
    },
    {
      "name": "Cigar_1_positions",
      "componentType": 5126,
      "count": 21,
      "min": [
        -0.055799998342990875,
        1.441499948501587,
        -0.16019999980926514
      ],
      "max": [
        -0.002099999925121665,
        1.4625999927520752,
        -0.10660000145435333
      ],
      "type": "VEC3",
      "bufferView": 0,
      "byteOffset": 4020
    },
    {
      "name": "Cigar_1_normals",
      "componentType": 5126,
      "count": 21,
      "min": [
        -0.9528999924659729,
        -0.798799991607666,
        -0.984499990940094
      ],
      "max": [
        0.9528999924659729,
        0.7986999750137329,
        0.984499990940094
      ],
      "type": "VEC3",
      "bufferView": 0,
      "byteOffset": 8292
    },
    {
      "name": "Cigar_1_texcoords",
      "componentType": 5126,
      "count": 21,
      "min": [
        -0.125,
        0
      ],
      "max": [
        0.875,
        1
      ],
      "type": "VEC2",
      "bufferView": 1,
      "byteOffset": 2680
    },
    {
      "name": "Cigar_1_0_indices",
      "componentType": 5123,
      "count": 96,
      "min": [
        0
      ],
      "max": [
        20
      ],
      "type": "SCALAR",
      "bufferView": 2,
      "byteOffset": 3452
    }
  ],
  "asset": {
    "generator": "obj2gltf",
    "version": "2.0"
  },
  "buffers": [
    {
      "name": "PlayerBody_01",
      "byteLength": 15036,
      "uri": "data:application/octet-stream;base64,"
    }
  ],
  "bufferViews": [
    {
      "name": "bufferView_0",
      "buffer": 0,
      "byteLength": 8544,
      "byteOffset": 0,
      "byteStride": 12,
      "target": 34962
    },
    {
      "name": "bufferView_1",
      "buffer": 0,
      "byteLength": 2848,
      "byteOffset": 8544,
      "byteStride": 8,
      "target": 34962
    },
    {
      "name": "bufferView_2",
      "buffer": 0,
      "byteLength": 3644,
      "byteOffset": 11392,
      "target": 34963
    }
  ],
  "materials": [
    {
      "name": "Coat",
      "pbrMetallicRoughness": {
        "baseColorFactor": [
          0.0314,
          0.0314,
          0.0314,
          1
        ],
        "metallicFactor": 0,
        "roughnessFactor": 0.989
      },
      "emissiveFactor": [
        0,
        0,
        0
      ],
      "alphaMode": "OPAQUE",
      "doubleSided": false
    }
  ],
  "meshes": [
    {
      "name": "Body_1",
      "primitives": [
        {
          "attributes": {
            "POSITION": 0,
            "NORMAL": 1,
            "TEXCOORD_0": 2
          },
          "indices": 3,
          "material": 0,
          "mode": 4
        }
      ]
    },
    {
      "name": "Hat_1",
      "primitives": [
        {
          "attributes": {
            "POSITION": 4,
            "NORMAL": 5,
            "TEXCOORD_0": 6
          },
          "indices": 7,
          "material": 0,
          "mode": 4
        }
      ]
    },
    {
      "name": "Cigar_1",
      "primitives": [
        {
          "attributes": {
            "POSITION": 8,
            "NORMAL": 9,
            "TEXCOORD_0": 10
          },
          "indices": 11,
          "material": 0,
          "mode": 4
        }
      ]
    }
  ],
  "nodes": [
    {
      "name": "Body",
      "mesh": 0
    },
    {
      "name": "Hat",
      "mesh": 1
    },
    {
      "name": "Cigar",
      "mesh": 2
    }
  ],
  "scene": 0,
  "scenes": [
    {
      "nodes": [
        0,
        1,
        2
      ]
    }
  ]
}
