# 3ds Max Wavefront OBJ Exporter v0.97b - (c)2007 guruware
# File Created: 12.05.2018 14:44:44

mtllib TestBox.mtl

#
# object Cylinder003
#

v  0.0000 1.0040 -6.1766
v  0.0000 -0.8839 -4.8411
v  -4.4199 -0.7793 -4.2653
v  -4.3495 1.6202 -4.4836
v  -0.0000 -2.9702 -4.6428
v  -3.8961 -3.7496 -4.6428
v  0.5237 -4.3134 4.5827
v  0.0000 0.0000 5.5777
v  -4.8364 -0.7456 5.4704
v  -4.5121 -4.4962 4.2211
v  -0.0000 5.2116 5.3837
v  -4.3495 4.5954 3.6908
v  -7.2706 1.7806 -3.0161
v  -7.4875 3.0109 -0.0000
v  -5.1605 3.4212 -0.0000
v  -6.7469 -1.1897 -4.2653
v  -6.2231 -4.1599 -4.6428
v  -7.1282 -1.1897 4.6192
v  -6.8698 -4.9090 3.3699
v  -7.2706 2.3554 3.2696
v  -14.0561 0.5841 -3.0161
v  -14.2731 1.8144 0.0000
v  -13.5324 -2.3861 -4.2653
v  -13.0087 -5.3564 -3.4981
v  -13.5324 -2.3861 4.2653
v  -12.4987 -5.8078 4.1747
v  -14.0561 0.5841 3.0161
v  -0.0000 -22.4656 -4.6428
v  -2.8787 -23.4322 -4.6428
v  -3.4947 -24.1788 4.2211
v  -0.0000 -23.8088 4.5827
v  -6.1561 -24.9173 3.3699
v  -5.5094 -24.1682 -4.6428
v  -8.0722 -23.2774 4.1747
v  -8.5822 -22.8259 -3.4981
v  -8.2793 -25.1685 1.0582
v  -5.8934 -26.6875 0.1154
v  -3.2445 -25.9500 0.6209
v  -0.0000 -25.3377 0.8356
v  -8.3556 -24.8996 -0.4910
v  -5.7966 -26.3741 -1.4847
v  -3.1523 -25.6370 -1.1066
v  -0.0000 -24.9354 -0.9460
v  -8.4316 -24.6319 -2.0336
v  -5.7002 -26.0620 -3.0780
v  -3.0605 -25.3253 -2.8267
v  -0.0000 -24.5348 -2.7200
v  -10.1026 -23.0512 0.3300
v  -13.2004 -6.7394 0.3300
v  -13.8382 -2.3861 -0.0000
v  -15.1454 -5.8078 1.9513
v  -10.7189 -23.2774 1.9513
# 52 vertices

vn -0.3711 -0.5363 -0.7581
vn -0.1292 -0.3485 -0.9284
vn -0.0611 0.0060 -0.9981
vn -0.3987 0.1867 -0.8979
vn 0.0107 -0.0533 -0.9985
vn -0.0114 0.0607 -0.9981
vn -0.0670 -0.1154 0.9911
vn -0.0088 -0.0863 0.9962
vn -0.1912 0.0046 0.9815
vn -0.1870 -0.1784 0.9660
vn -0.3668 0.0346 0.9297
vn -0.5162 0.5416 0.6635
vn -0.1960 0.7253 -0.6599
vn -0.1729 0.9805 -0.0932
vn -0.1641 0.9307 -0.3269
vn -0.0444 0.2518 -0.9668
vn -0.0886 0.0524 -0.9947
vn -0.2108 0.0071 0.9775
vn -0.0763 -0.1603 0.9841
vn -0.3990 0.6554 0.6412
vn -0.7160 0.4312 -0.5490
vn -0.7366 0.6763 0.0000
vn -0.6201 -0.0528 -0.7827
vn -0.7184 -0.2347 -0.6549
vn -0.6824 -0.0240 0.7306
vn -0.4233 -0.1300 0.8966
vn -0.7423 0.4036 0.5348
vn 0.0993 -0.2956 -0.9501
vn 0.1182 -0.3782 -0.9181
vn -0.0919 -0.5014 0.8603
vn -0.0351 -0.5090 0.8601
vn -0.1950 -0.6479 0.7363
vn -0.1586 -0.3781 -0.9121
vn -0.1710 -0.2561 0.9514
vn -0.6619 -0.3053 -0.6846
vn -0.7952 -0.5679 0.2124
vn -0.1443 -0.9858 0.0861
vn 0.2043 -0.9654 0.1619
vn 0.1784 -0.9792 0.0970
vn -0.6421 -0.7600 -0.1003
vn -0.1423 -0.9697 -0.1985
vn 0.2542 -0.9539 -0.1593
vn 0.2226 -0.9510 -0.2147
vn -0.8250 -0.5111 -0.2413
vn -0.1364 -0.8483 -0.5116
vn 0.2610 -0.8587 -0.4409
vn 0.2328 -0.8335 -0.5011
vn -0.8444 -0.5185 -0.1349
vn -0.9871 -0.1597 -0.0095
vn -0.9923 -0.1240 -0.0017
vn -0.6348 -0.1609 0.7557
# 51 vertex normals

vt -0.1250 0.0000 1.0000
vt 0.0000 0.0000 1.0000
vt 0.0000 0.3266 1.0000
vt -0.1250 0.3266 1.0000
vt 0.1250 0.0000 1.0000
vt 0.1250 0.3266 1.0000
vt 0.3750 0.0000 1.0000
vt 0.5000 0.0000 1.0000
vt 0.5000 0.3266 1.0000
vt 0.3750 0.3266 1.0000
vt 0.6250 0.0000 1.0000
vt 0.6250 0.3266 1.0000
vt 0.8750 0.3266 1.0000
vt 0.8750 0.4986 1.0000
vt 0.7500 0.4986 1.0000
vt 0.7500 0.3266 1.0000
vt 0.0000 0.4986 1.0000
vt -0.1250 0.4986 1.0000
vt 0.1250 0.4986 1.0000
vt 0.5000 0.4986 1.0000
vt 0.3750 0.4986 1.0000
vt 0.6250 0.4986 1.0000
vt 0.8750 1.0000 1.0000
vt 0.7500 1.0000 1.0000
vt 0.0000 1.0000 1.0000
vt -0.1250 1.0000 1.0000
vt 0.1250 1.0000 1.0000
vt 0.5000 1.0000 1.0000
vt 0.3750 1.0000 1.0000
vt 0.6250 1.0000 1.0000
vt 0.3789 0.2025 1.0000
vt 0.3750 0.2025 1.0000
vt 0.2265 0.3266 1.0000
vt 0.2812 0.4986 1.0000
vt 0.4724 0.2771 1.0000
vt 0.3750 0.2771 1.0000
vt 0.2640 0.3266 1.0000
vt 0.4308 0.4986 1.0000
vt 0.5655 0.3514 1.0000
vt 0.3750 0.3514 1.0000
vt 0.3012 0.3266 1.0000
vt 0.5798 0.4986 1.0000
vt 0.4382 0.2498 1.0000
vt 0.4374 1.0000 1.0000
vt -0.0625 0.5000 1.0000
vt 0.4375 1.0000 1.0000
# 46 texture coords

o Cylinder003
g Cylinder003
usemtl wire_177027088
s 8
f 1/1/1 2/2/2 3/3/3 4/4/4 
f 2/2/2 5/5/5 6/6/6 3/3/3 
f 7/7/7 8/8/8 9/9/9 10/10/10 
f 8/8/8 11/11/11 12/12/12 9/9/9 
f 4/13/4 13/14/13 14/15/14 15/16/15 
f 3/3/3 16/17/16 13/18/13 4/4/4 
f 6/6/6 17/19/17 16/17/16 3/3/3 
f 9/9/9 18/20/18 19/21/19 10/10/10 
f 12/12/12 20/22/20 18/20/18 9/9/9 
f 15/16/15 14/15/14 20/22/20 12/12/12 
f 13/14/13 21/23/21 22/24/22 14/15/14 
f 16/17/16 23/25/23 21/26/21 13/18/13 
f 17/19/17 24/27/24 23/25/23 16/17/16 
f 18/20/18 25/28/25 26/29/26 19/21/19 
f 20/22/20 27/30/27 25/28/25 18/20/18 
f 14/15/14 22/24/22 27/30/27 20/22/20 
s off
f 6/6/6 5/5/5 28/5/28 29/6/29 
f 7/7/7 10/10/10 30/10/30 31/7/31 
f 10/10/10 19/21/19 32/21/32 30/10/30 
f 17/19/17 6/6/6 29/6/29 33/19/33 
f 19/21/19 26/29/26 34/29/34 32/21/32 
f 24/27/24 17/19/17 33/19/33 35/27/35 
s 1
f 32/7/32 34/5/34 36/31/36 37/32/37 
f 30/6/30 32/7/32 37/32/37 38/33/38 
f 31/18/31 30/6/30 38/33/38 39/34/39 
f 36/31/36 40/35/40 41/36/41 37/32/37 
f 37/32/37 41/36/41 42/37/42 38/33/38 
f 38/33/38 42/37/42 43/38/43 39/34/39 
f 44/39/44 35/15/35 33/21/33 45/40/45 
f 45/40/45 33/21/33 29/10/29 46/41/46 
f 46/41/46 29/10/29 28/14/28 47/42/47 
s 4
f 36/34/36 34/5/34 48/43/48 40/38/40 
s 1
f 40/35/40 44/39/44 45/40/45 41/36/41 
f 41/36/41 45/40/45 46/41/46 42/37/42 
f 42/37/42 46/41/46 47/42/47 43/38/43 
s 2
f 49/44/49 24/29/24 35/15/35 48/43/48 
s 4
f 48/43/48 35/15/35 44/42/44 40/38/40 
s 1
f 25/30/25 27/1/27 22/45/22 50/29/50 
f 26/28/26 25/30/25 50/29/50 49/46/49 
f 22/45/22 21/25/21 23/27/23 50/29/50 
f 50/29/50 23/27/23 24/29/24 49/46/49 
s off
f 34/29/34 26/29/26 51/29/51 52/29/51 
# 42 polygons

#
# object Cylinder005
#

v  4.3495 4.5954 3.6908
v  -0.0000 5.2116 5.3837
v  -4.3495 4.5954 3.6908
v  -6.1511 3.1078 -0.3964
v  -4.3495 1.6202 -4.4836
v  -0.0000 1.0040 -6.1766
v  4.3495 1.6202 -4.4836
v  6.1511 3.1078 -0.3964
v  4.3495 3.5075 -5.1705
v  6.1511 4.9951 -1.0834
v  -0.0000 2.8913 -6.8635
v  -4.3495 3.5075 -5.1705
v  -6.1511 4.9951 -1.0834
v  -4.3495 6.4827 3.0038
v  -0.0000 7.0989 4.6968
v  4.3495 6.4827 3.0038
v  3.9658 6.3515 2.6433
v  5.6085 4.9951 -1.0834
v  3.9658 3.6387 -4.8100
v  -0.0000 3.0769 -6.3536
v  -3.9658 3.6387 -4.8100
v  -5.6085 4.9951 -1.0834
v  -3.9658 6.3515 2.6433
v  -0.0000 6.9133 4.1869
# 24 vertices

vn 0.5489 -0.4045 0.7315
vn -0.0000 -0.3267 0.9451
vn -0.5490 -0.4045 0.7314
vn -0.7764 -0.5923 0.2156
vn -0.5490 -0.7800 -0.3003
vn -0.0000 -0.8578 -0.5140
vn 0.5490 -0.7800 -0.3003
vn 0.7763 -0.5923 0.2155
vn 0.5490 0.4045 -0.7314
vn 0.7763 0.5923 -0.2156
vn -0.0000 0.3267 -0.9451
vn -0.5490 0.4045 -0.7314
vn -0.7764 0.5923 -0.2156
vn -0.5490 0.7800 0.3003
vn -0.0000 0.8578 0.5140
vn 0.5489 0.7801 0.3003
vn 0.0000 0.9397 -0.3420
vn -0.0000 0.9397 -0.3420
# 18 vertex normals

vt 0.6250 0.0000 1.0000
vt 0.5000 0.0000 1.0000
vt 0.3750 0.0000 1.0000
vt 0.2500 0.0000 1.0000
vt 0.1250 0.0000 1.0000
vt 0.0000 0.0000 1.0000
vt -0.1250 0.0000 1.0000
vt 0.1161 0.0000 0.4142
vt 0.7500 0.0000 1.0000
vt 0.8750 0.0000 1.0000
vt 0.8750 1.0000 1.0000
vt 0.7500 1.0000 1.0000
vt 0.0000 1.0000 1.0000
vt -0.1250 1.0000 1.0000
vt 0.1250 1.0000 1.0000
vt 0.2500 1.0000 1.0000
vt 0.3750 1.0000 1.0000
vt 0.5000 1.0000 1.0000
vt 0.6250 1.0000 1.0000
vt 0.7803 1.0000 0.4142
vt 0.5214 1.0000 -0.4142
vt 0.2500 1.0000 -1.0000
vt 0.1250 1.0000 -1.0000
vt 0.2197 1.0000 -0.4142
# 24 texture coords

o Cylinder005
g Cylinder005
usemtl wire_148177027
s 1
f 53/47/52 54/48/53 55/49/54 56/50/55 57/51/56 58/52/57 59/53/58 60/54/59 
s 8
f 60/55/59 59/56/58 61/57/60 62/58/61 
f 59/53/58 58/52/57 63/59/62 61/60/60 
f 58/52/57 57/51/56 64/61/63 63/59/62 
f 57/51/56 56/50/55 65/62/64 64/61/63 
f 56/50/55 55/49/54 66/63/65 65/62/64 
f 55/49/54 54/48/53 67/64/66 66/63/65 
f 54/48/53 53/47/52 68/65/67 67/64/66 
f 53/47/52 60/55/59 62/58/61 68/65/67 
s 1
f 69/65/68 70/58/68 71/57/68 72/66/68 73/67/68 74/68/69 75/69/69 76/70/68 
s off
f 62/58/61 61/57/60 71/57/68 70/58/68 
f 61/57/60 63/66/62 72/66/68 71/57/68 
f 63/66/62 64/67/63 73/67/68 72/66/68 
f 64/67/63 65/68/64 74/68/69 73/67/68 
f 65/68/64 66/69/65 75/69/69 74/68/69 
f 66/69/65 67/70/66 76/70/68 75/69/69 
f 67/70/66 68/65/67 69/65/68 76/70/68 
f 68/65/67 62/58/61 70/58/68 69/65/68 
# 18 polygons

#
# object Cylinder006
#

v  -0.0000 1.0040 -6.1766
v  -0.0000 -0.8839 -4.8411
v  4.4199 -0.7793 -4.2653
v  4.3495 1.6202 -4.4836
v  0.0000 -2.9702 -4.6428
v  3.8961 -3.7496 -4.6428
v  -0.5237 -4.3134 4.5827
v  0.0000 0.0000 5.5777
v  4.8364 -0.7456 5.4704
v  4.5121 -4.4962 4.2211
v  0.0000 5.2116 5.3837
v  4.3495 4.5954 3.6908
v  7.2706 1.7806 -3.0161
v  7.4875 3.0109 -0.0000
v  5.1605 3.4212 -0.0000
v  6.7469 -1.1897 -4.2653
v  6.2231 -4.1599 -4.6428
v  7.1282 -1.1897 4.6192
v  6.8698 -4.9090 3.3699
v  7.2706 2.3554 3.2696
v  14.0561 0.5841 -3.0161
v  14.2731 1.8144 0.0000
v  13.5324 -2.3861 -4.2653
v  13.0087 -5.3564 -3.4981
v  13.5324 -2.3861 4.2653
v  12.4987 -5.8078 4.1747
v  14.0561 0.5841 3.0161
v  0.0000 -22.4656 -4.6428
v  2.8787 -23.4322 -4.6428
v  3.4947 -24.1788 4.2211
v  0.0000 -23.8088 4.5827
v  6.1561 -24.9173 3.3699
v  5.5094 -24.1682 -4.6428
v  8.0722 -23.2774 4.1747
v  8.5822 -22.8259 -3.4981
v  8.2793 -25.1685 1.0582
v  5.8934 -26.6875 0.1154
v  3.2445 -25.9500 0.6209
v  0.0000 -25.3377 0.8356
v  8.3556 -24.8996 -0.4910
v  5.7966 -26.3741 -1.4847
v  3.1523 -25.6370 -1.1066
v  0.0000 -24.9354 -0.9460
v  8.4316 -24.6319 -2.0336
v  5.7002 -26.0620 -3.0780
v  3.0605 -25.3253 -2.8267
v  0.0000 -24.5348 -2.7200
v  10.1026 -23.0512 0.3300
v  13.2004 -6.7394 0.3300
v  13.8382 -2.3861 -0.0000
v  15.1454 -5.8078 1.9513
v  10.7189 -23.2774 1.9513
# 52 vertices

vn 0.3711 -0.5363 -0.7581
vn 0.1292 -0.3485 -0.9284
vn 0.0611 0.0060 -0.9981
vn 0.3987 0.1867 -0.8979
vn -0.0107 -0.0533 -0.9985
vn 0.0114 0.0607 -0.9981
vn 0.0670 -0.1154 0.9911
vn 0.0088 -0.0863 0.9962
vn 0.1912 0.0046 0.9815
vn 0.1870 -0.1784 0.9660
vn 0.3668 0.0346 0.9297
vn 0.5162 0.5416 0.6635
vn 0.1960 0.7253 -0.6599
vn 0.1729 0.9805 -0.0932
vn 0.1641 0.9307 -0.3269
vn 0.0444 0.2518 -0.9668
vn 0.0886 0.0524 -0.9947
vn 0.2108 0.0071 0.9775
vn 0.0763 -0.1603 0.9841
vn 0.3990 0.6554 0.6412
vn 0.7160 0.4312 -0.5490
vn 0.7366 0.6763 0.0000
vn 0.6201 -0.0528 -0.7827
vn 0.7184 -0.2347 -0.6549
vn 0.6824 -0.0240 0.7306
vn 0.4233 -0.1300 0.8966
vn 0.7423 0.4036 0.5348
vn -0.0993 -0.2956 -0.9501
vn -0.1182 -0.3782 -0.9181
vn 0.0919 -0.5014 0.8603
vn 0.0351 -0.5090 0.8601
vn 0.1950 -0.6479 0.7363
vn 0.1586 -0.3781 -0.9121
vn 0.1710 -0.2561 0.9514
vn 0.6619 -0.3053 -0.6846
vn 0.7952 -0.5679 0.2124
vn 0.1443 -0.9858 0.0861
vn -0.2043 -0.9654 0.1619
vn -0.1784 -0.9792 0.0970
vn 0.6421 -0.7600 -0.1003
vn 0.1423 -0.9697 -0.1985
vn -0.2542 -0.9539 -0.1593
vn -0.2226 -0.9510 -0.2147
vn 0.8250 -0.5111 -0.2413
vn 0.1364 -0.8483 -0.5116
vn -0.2610 -0.8587 -0.4409
vn -0.2328 -0.8335 -0.5011
vn 0.8444 -0.5185 -0.1349
vn 0.9871 -0.1597 -0.0095
vn 0.9923 -0.1240 -0.0017
vn 0.6348 -0.1609 0.7557
# 51 vertex normals

vt -0.1250 0.0000 1.0000
vt 0.0000 0.0000 1.0000
vt 0.0000 0.3266 1.0000
vt -0.1250 0.3266 1.0000
vt 0.1250 0.0000 1.0000
vt 0.1250 0.3266 1.0000
vt 0.3750 0.0000 1.0000
vt 0.5000 0.0000 1.0000
vt 0.5000 0.3266 1.0000
vt 0.3750 0.3266 1.0000
vt 0.6250 0.0000 1.0000
vt 0.6250 0.3266 1.0000
vt 0.8750 0.3266 1.0000
vt 0.8750 0.4986 1.0000
vt 0.7500 0.4986 1.0000
vt 0.7500 0.3266 1.0000
vt 0.0000 0.4986 1.0000
vt -0.1250 0.4986 1.0000
vt 0.1250 0.4986 1.0000
vt 0.5000 0.4986 1.0000
vt 0.3750 0.4986 1.0000
vt 0.6250 0.4986 1.0000
vt 0.8750 1.0000 1.0000
vt 0.7500 1.0000 1.0000
vt 0.0000 1.0000 1.0000
vt -0.1250 1.0000 1.0000
vt 0.1250 1.0000 1.0000
vt 0.5000 1.0000 1.0000
vt 0.3750 1.0000 1.0000
vt 0.6250 1.0000 1.0000
vt 0.3789 0.2025 1.0000
vt 0.3750 0.2025 1.0000
vt 0.2265 0.3266 1.0000
vt 0.2812 0.4986 1.0000
vt 0.4724 0.2771 1.0000
vt 0.3750 0.2771 1.0000
vt 0.2640 0.3266 1.0000
vt 0.4308 0.4986 1.0000
vt 0.5655 0.3514 1.0000
vt 0.3750 0.3514 1.0000
vt 0.3012 0.3266 1.0000
vt 0.5798 0.4986 1.0000
vt 0.4382 0.2498 1.0000
vt 0.4374 1.0000 1.0000
vt -0.0625 0.5000 1.0000
vt 0.4375 1.0000 1.0000
# 46 texture coords

o Cylinder006
g Cylinder006
usemtl wire_177027088
s 8
f 80/74/73 79/73/72 78/72/71 77/71/70 
f 79/73/72 82/76/75 81/75/74 78/72/71 
f 86/80/79 85/79/78 84/78/77 83/77/76 
f 85/79/78 88/82/81 87/81/80 84/78/77 
f 91/86/84 90/85/83 89/84/82 80/83/73 
f 80/74/73 89/88/82 92/87/85 79/73/72 
f 79/73/72 92/87/85 93/89/86 82/76/75 
f 86/80/79 95/91/88 94/90/87 85/79/78 
f 85/79/78 94/90/87 96/92/89 88/82/81 
f 88/82/81 96/92/89 90/85/83 91/86/84 
f 90/85/83 98/94/91 97/93/90 89/84/82 
f 89/88/82 97/96/90 99/95/92 92/87/85 
f 92/87/85 99/95/92 100/97/93 93/89/86 
f 95/91/88 102/99/95 101/98/94 94/90/87 
f 94/90/87 101/98/94 103/100/96 96/92/89 
f 96/92/89 103/100/96 98/94/91 90/85/83 
s off
f 105/76/98 104/75/97 81/75/74 82/76/75 
f 107/77/100 106/80/99 86/80/79 83/77/76 
f 106/80/99 108/91/101 95/91/88 86/80/79 
f 109/89/102 105/76/98 82/76/75 93/89/86 
f 108/91/101 110/99/103 102/99/95 95/91/88 
f 111/97/104 109/89/102 93/89/86 100/97/93 
s 1
f 113/102/106 112/101/105 110/75/103 108/77/101 
f 114/103/107 113/102/106 108/77/101 106/76/99 
f 115/104/108 114/103/107 106/76/99 107/88/100 
f 113/102/106 117/106/110 116/105/109 112/101/105 
f 114/103/107 118/107/111 117/106/110 113/102/106 
f 115/104/108 119/108/112 118/107/111 114/103/107 
f 121/110/114 109/91/102 111/85/104 120/109/113 
f 122/111/115 105/80/98 109/91/102 121/110/114 
f 123/112/116 104/84/97 105/80/98 122/111/115 
s 4
f 116/108/109 124/113/117 110/75/103 112/104/105 
s 1
f 117/106/110 121/110/114 120/109/113 116/105/109 
f 118/107/111 122/111/115 121/110/114 117/106/110 
f 119/108/112 123/112/116 122/111/115 118/107/111 
s 2
f 124/113/117 111/85/104 100/99/93 125/114/118 
s 4
f 116/108/109 120/112/113 111/85/104 124/113/117 
s 1
f 126/99/119 98/115/91 103/71/96 101/100/94 
f 125/116/118 126/99/119 101/100/94 102/98/95 
f 126/99/119 99/97/92 97/95/90 98/115/91 
f 125/116/118 100/99/93 99/97/92 126/99/119 
s off
f 128/99/120 127/99/120 102/99/95 110/99/103 
# 42 polygons

#
# object Cylinder007
#

v  22.2937 1.0040 -6.1766
v  22.2937 -0.8839 -4.8411
v  26.7135 -0.7793 -4.2653
v  26.6431 1.6202 -4.4836
v  22.2937 -2.9702 -4.6428
v  26.1898 -3.7496 -4.6428
v  21.7699 -4.3134 4.5827
v  22.2937 0.0000 5.5777
v  27.1301 -0.7456 5.4704
v  26.8058 -4.4962 4.2211
v  22.2937 5.2116 5.3837
v  26.6432 4.5954 3.6908
v  29.5643 1.7806 -3.0161
v  29.7812 3.0109 -0.0000
v  27.4542 3.4212 -0.0000
v  29.0405 -1.1897 -4.2653
v  28.5168 -4.1599 -4.6428
v  29.4219 -1.1897 4.6192
v  29.1635 -4.9090 3.3699
v  29.5643 2.3554 3.2696
v  36.3498 0.5841 -3.0161
v  36.5667 1.8144 0.0000
v  35.8261 -2.3861 -4.2653
v  35.3023 -5.3564 -3.4981
v  35.8261 -2.3861 4.2653
v  34.7923 -5.8078 4.1747
v  36.3498 0.5841 3.0161
v  22.2937 -22.4656 -4.6428
v  25.1724 -23.4322 -4.6428
v  25.7884 -24.1788 4.2211
v  22.2937 -23.8088 4.5827
v  28.4497 -24.9173 3.3699
v  27.8030 -24.1682 -4.6428
v  30.3658 -23.2774 4.1747
v  30.8758 -22.8259 -3.4981
v  30.5730 -25.1685 1.0582
v  28.1871 -26.6875 0.1154
v  25.5382 -25.9500 0.6209
v  22.2937 -25.3377 0.8356
v  30.6493 -24.8996 -0.4910
v  28.0903 -26.3741 -1.4847
v  25.4460 -25.6370 -1.1066
v  22.2937 -24.9354 -0.9460
v  30.7253 -24.6319 -2.0336
v  27.9939 -26.0620 -3.0780
v  25.3542 -25.3253 -2.8267
v  22.2937 -24.5348 -2.7200
v  32.3963 -23.0512 0.3300
v  35.4940 -6.7394 0.3300
v  36.1318 -2.3861 -0.0000
v  37.4390 -5.8078 1.9513
v  33.0126 -23.2774 1.9513
# 52 vertices

vn 0.3711 -0.5363 -0.7581
vn 0.1292 -0.3485 -0.9284
vn 0.0611 0.0060 -0.9981
vn 0.3987 0.1867 -0.8979
vn -0.0107 -0.0533 -0.9985
vn 0.0114 0.0607 -0.9981
vn 0.0670 -0.1154 0.9911
vn 0.0088 -0.0863 0.9962
vn 0.1912 0.0046 0.9815
vn 0.1870 -0.1784 0.9660
vn 0.3668 0.0346 0.9297
vn 0.5162 0.5416 0.6635
vn 0.1960 0.7253 -0.6599
vn 0.1729 0.9805 -0.0932
vn 0.1641 0.9307 -0.3269
vn 0.0444 0.2518 -0.9668
vn 0.0886 0.0524 -0.9947
vn 0.2108 0.0071 0.9775
vn 0.0763 -0.1603 0.9841
vn 0.3990 0.6554 0.6412
vn 0.7160 0.4312 -0.5490
vn 0.7366 0.6763 0.0000
vn 0.6201 -0.0528 -0.7827
vn 0.7184 -0.2347 -0.6549
vn 0.6824 -0.0240 0.7306
vn 0.4233 -0.1300 0.8966
vn 0.7423 0.4036 0.5348
vn -0.0993 -0.2956 -0.9501
vn -0.1182 -0.3782 -0.9181
vn 0.0919 -0.5014 0.8603
vn 0.0351 -0.5090 0.8601
vn 0.1950 -0.6479 0.7363
vn 0.1586 -0.3781 -0.9121
vn 0.1710 -0.2561 0.9514
vn 0.6619 -0.3053 -0.6846
vn 0.7952 -0.5679 0.2124
vn 0.1443 -0.9858 0.0861
vn -0.2043 -0.9654 0.1619
vn -0.1784 -0.9792 0.0970
vn 0.6421 -0.7600 -0.1003
vn 0.1423 -0.9697 -0.1985
vn -0.2542 -0.9539 -0.1593
vn -0.2226 -0.9510 -0.2147
vn 0.8250 -0.5111 -0.2413
vn 0.1364 -0.8483 -0.5116
vn -0.2610 -0.8587 -0.4409
vn -0.2328 -0.8335 -0.5011
vn 0.8444 -0.5185 -0.1349
vn 0.9871 -0.1597 -0.0095
vn 0.9923 -0.1240 -0.0017
vn 0.6348 -0.1609 0.7557
# 51 vertex normals

vt -0.1250 0.0000 1.0000
vt 0.0000 0.0000 1.0000
vt 0.0000 0.3266 1.0000
vt -0.1250 0.3266 1.0000
vt 0.1250 0.0000 1.0000
vt 0.1250 0.3266 1.0000
vt 0.3750 0.0000 1.0000
vt 0.5000 0.0000 1.0000
vt 0.5000 0.3266 1.0000
vt 0.3750 0.3266 1.0000
vt 0.6250 0.0000 1.0000
vt 0.6250 0.3266 1.0000
vt 0.8750 0.3266 1.0000
vt 0.8750 0.4986 1.0000
vt 0.7500 0.4986 1.0000
vt 0.7500 0.3266 1.0000
vt 0.0000 0.4986 1.0000
vt -0.1250 0.4986 1.0000
vt 0.1250 0.4986 1.0000
vt 0.5000 0.4986 1.0000
vt 0.3750 0.4986 1.0000
vt 0.6250 0.4986 1.0000
vt 0.8750 1.0000 1.0000
vt 0.7500 1.0000 1.0000
vt 0.0000 1.0000 1.0000
vt -0.1250 1.0000 1.0000
vt 0.1250 1.0000 1.0000
vt 0.5000 1.0000 1.0000
vt 0.3750 1.0000 1.0000
vt 0.6250 1.0000 1.0000
vt 0.3789 0.2025 1.0000
vt 0.3750 0.2025 1.0000
vt 0.2265 0.3266 1.0000
vt 0.2812 0.4986 1.0000
vt 0.4724 0.2771 1.0000
vt 0.3750 0.2771 1.0000
vt 0.2640 0.3266 1.0000
vt 0.4308 0.4986 1.0000
vt 0.5655 0.3514 1.0000
vt 0.3750 0.3514 1.0000
vt 0.3012 0.3266 1.0000
vt 0.5798 0.4986 1.0000
vt 0.4382 0.2498 1.0000
vt 0.4374 1.0000 1.0000
vt -0.0625 0.5000 1.0000
vt 0.4375 1.0000 1.0000
# 46 texture coords

o Cylinder007
g Cylinder007
usemtl wire_177027088
s 8
f 132/120/124 131/119/123 130/118/122 129/117/121 
f 131/119/123 134/122/126 133/121/125 130/118/122 
f 138/126/130 137/125/129 136/124/128 135/123/127 
f 137/125/129 140/128/132 139/127/131 136/124/128 
f 143/132/135 142/131/134 141/130/133 132/129/124 
f 132/120/124 141/134/133 144/133/136 131/119/123 
f 131/119/123 144/133/136 145/135/137 134/122/126 
f 138/126/130 147/137/139 146/136/138 137/125/129 
f 137/125/129 146/136/138 148/138/140 140/128/132 
f 140/128/132 148/138/140 142/131/134 143/132/135 
f 142/131/134 150/140/142 149/139/141 141/130/133 
f 141/134/133 149/142/141 151/141/143 144/133/136 
f 144/133/136 151/141/143 152/143/144 145/135/137 
f 147/137/139 154/145/146 153/144/145 146/136/138 
f 146/136/138 153/144/145 155/146/147 148/138/140 
f 148/138/140 155/146/147 150/140/142 142/131/134 
s off
f 157/122/149 156/121/148 133/121/125 134/122/126 
f 159/123/151 158/126/150 138/126/130 135/123/127 
f 158/126/150 160/137/152 147/137/139 138/126/130 
f 161/135/153 157/122/149 134/122/126 145/135/137 
f 160/137/152 162/145/154 154/145/146 147/137/139 
f 163/143/155 161/135/153 145/135/137 152/143/144 
s 1
f 165/148/157 164/147/156 162/121/154 160/123/152 
f 166/149/158 165/148/157 160/123/152 158/122/150 
f 167/150/159 166/149/158 158/122/150 159/134/151 
f 165/148/157 169/152/161 168/151/160 164/147/156 
f 166/149/158 170/153/162 169/152/161 165/148/157 
f 167/150/159 171/154/163 170/153/162 166/149/158 
f 173/156/165 161/137/153 163/131/155 172/155/164 
f 174/157/166 157/126/149 161/137/153 173/156/165 
f 175/158/167 156/130/148 157/126/149 174/157/166 
s 4
f 168/154/160 176/159/168 162/121/154 164/150/156 
s 1
f 169/152/161 173/156/165 172/155/164 168/151/160 
f 170/153/162 174/157/166 173/156/165 169/152/161 
f 171/154/163 175/158/167 174/157/166 170/153/162 
s 2
f 176/159/168 163/131/155 152/145/144 177/160/169 
s 4
f 168/154/160 172/158/164 163/131/155 176/159/168 
s 1
f 178/145/170 150/161/142 155/117/147 153/146/145 
f 177/162/169 178/145/170 153/146/145 154/144/146 
f 178/145/170 151/143/143 149/141/141 150/161/142 
f 177/162/169 152/145/144 151/143/143 178/145/170 
s off
f 180/145/171 179/145/171 154/145/146 162/145/154 
# 42 polygons

#
# object Plane001
#

v  -10.0000 6.1252 3.3333
v  -10.0000 6.1252 10.0000
v  -3.3333 6.1252 10.0000
v  -3.3333 6.1252 3.3333
v  -3.3333 0.0000 3.3333
v  -3.3333 0.0000 10.0000
v  3.3333 0.0000 10.0000
v  3.3333 0.0000 3.3333
v  3.3333 6.1252 3.3333
v  3.3333 6.1252 10.0000
v  10.0000 6.1252 10.0000
v  10.0000 6.1252 3.3333
v  -10.0000 0.0000 -3.3333
v  -10.0000 0.0000 3.3333
v  -3.3333 0.0000 -3.3333
v  3.3333 0.0000 -3.3333
v  10.0000 0.0000 3.3333
v  10.0000 0.0000 -3.3333
v  -10.0000 6.1252 -10.0000
v  -10.0000 6.1252 -3.3333
v  -3.3333 6.1252 -3.3333
v  -3.3333 6.1252 -10.0000
v  -3.3333 0.0000 -10.0000
v  3.3333 0.0000 -10.0000
v  3.3333 6.1252 -10.0000
v  3.3333 6.1252 -3.3333
v  10.0000 6.1252 -3.3333
v  10.0000 6.1252 -10.0000
v  -10.0000 0.0000 10.0000
v  10.0000 0.0000 10.0000
v  -10.0000 0.0000 -10.0000
v  10.0000 0.0000 -10.0000
# 32 vertices

vn -0.5774 0.5774 -0.5774
vn -0.5774 0.5774 0.5774
vn 0.5774 0.5774 0.5774
vn 0.5774 0.5774 -0.5774
vn 0.3015 0.9045 -0.3015
vn -0.3015 0.9045 -0.3015
vn 0.3015 0.9045 0.3015
vn -0.3015 0.9045 0.3015
vn -0.7071 0.0000 0.7071
vn 0.7071 0.0000 0.7071
vn -0.7071 0.0000 -0.7071
vn 0.7071 0.0000 -0.7071
# 12 vertex normals

vt 0.0000 0.3333 0.0000
vt 0.0000 0.0000 0.0000
vt 0.3333 0.0000 0.0000
vt 0.3333 0.3333 0.0000
vt 0.6667 0.0000 0.0000
vt 0.6667 0.3333 0.0000
vt 1.0000 0.0000 0.0000
vt 1.0000 0.3333 0.0000
vt 0.0000 0.6667 0.0000
vt 0.3333 0.6667 0.0000
vt 0.6667 0.6667 0.0000
vt 1.0000 0.6667 0.0000
vt 0.0000 1.0000 0.0000
vt 0.3333 1.0000 0.0000
vt 0.6667 1.0000 0.0000
vt 1.0000 1.0000 0.0000
# 16 texture coords

o Plane001
g Plane001
usemtl Material__25
s 1
f 181/163/172 182/164/173 183/165/174 184/166/175 
f 185/166/176 186/165/174 187/167/173 188/168/177 
f 189/168/172 190/167/173 191/169/174 192/170/175 
f 193/171/173 194/163/172 185/166/176 195/172/178 
f 195/172/178 185/166/176 188/168/177 196/173/179 
f 196/173/179 188/168/177 197/170/175 198/174/174 
f 199/175/172 200/171/173 201/172/174 202/176/175 
f 203/176/175 195/172/178 196/173/179 204/177/172 
f 205/177/172 206/173/173 207/174/174 208/178/175 
s off
f 194/163/172 209/164/180 182/164/173 181/163/172 
f 209/164/180 186/165/174 183/165/174 182/164/173 
f 186/165/174 185/166/176 184/166/175 183/165/174 
f 185/166/176 194/163/172 181/163/172 184/166/175 
f 188/168/177 187/167/173 190/167/173 189/168/172 
f 187/167/173 210/169/181 191/169/174 190/167/173 
f 210/169/181 197/170/175 192/170/175 191/169/174 
f 197/170/175 188/168/177 189/168/172 192/170/175 
f 193/171/173 195/172/178 201/172/174 200/171/173 
f 195/172/178 203/176/175 202/176/175 201/172/174 
f 203/176/175 211/175/182 199/175/172 202/176/175 
f 211/175/182 193/171/173 200/171/173 199/175/172 
f 196/173/179 198/174/174 207/174/174 206/173/173 
f 198/174/174 212/178/183 208/178/175 207/174/174 
f 212/178/183 204/177/172 205/177/172 208/178/175 
f 204/177/172 196/173/179 206/173/173 205/177/172 
# 25 polygons

