{
  "accessors": [
    {
      "name": "Torus_Knot001_1_positions",
      "componentType": 5126,
      "count": 1573,
      "min": [
        -1.823199987411499,
        -1.4276000261306763,
        -2.0007998943328857
      ],
      "max": [
        2.0855000019073486,
        1.4277000427246094,
        2.000699996948242
      ],
      "type": "VEC3",
      "bufferView": 0,
      "byteOffset": 0
    },
    {
      "name": "Torus_Knot001_1_normals",
      "componentType": 5126,
      "count": 1573,
      "min": [
        -1,
        -0.9761999845504761,
        -0.9858999848365784
      ],
      "max": [
        1,
        0.9763000011444092,
        0.9858999848365784
      ],
      "type": "VEC3",
      "bufferView": 0,
      "byteOffset": 18876
    },
    {
      "name": "Torus_Knot001_1_texcoords",
      "componentType": 5126,
      "count": 1573,
      "min": [
        0,
        0
      ],
      "max": [
        1,
        1
      ],
      "type": "VEC2",
      "bufferView": 1,
      "byteOffset": 0
    },
    {
      "name": "Torus_Knot001_1_0_indices",
      "componentType": 5123,
      "count": 8640,
      "min": [
        0
      ],
      "max": [
        1572
      ],
      "type": "SCALAR",
      "bufferView": 2,
      "byteOffset": 0
    }
  ],
  "asset": {
    "generator": "obj2gltf",
    "version": "2.0"
  },
  "buffers": [
    {
      "name": "TestTorus",
      "byteLength": 67616,
      "uri": "data:application/octet-stream;base64,"
    }
  ],
  "bufferViews": [
    {
      "name": "bufferView_0",
      "buffer": 0,
      "byteLength": 37752,
      "byteOffset": 0,
      "byteStride": 12,
      "target": 34962
    },
    {
      "name": "bufferView_1",
      "buffer": 0,
      "byteLength": 12584,
      "byteOffset": 37752,
      "byteStride": 8,
      "target": 34962
    },
    {
      "name": "bufferView_2",
      "buffer": 0,
      "byteLength": 17280,
      "byteOffset": 50336,
      "target": 34963
    }
  ],
  "materials": [
    {
      "name": "TestMaterial",
      "pbrMetallicRoughness": {
        "baseColorFactor": [
          0.1922,
          0.1922,
          0.1922,
          1
        ],
        "metallicFactor": 0,
        "roughnessFactor": 0.975
      },
      "emissiveFactor": [
        0,
        0,
        0
      ],
      "alphaMode": "OPAQUE",
      "doubleSided": false
    }
  ],
  "meshes": [
    {
      "name": "Torus_Knot001_1",
      "primitives": [
        {
          "attributes": {
            "POSITION": 0,
            "NORMAL": 1,
            "TEXCOORD_0": 2
          },
          "indices": 3,
          "material": 0,
          "mode": 4
        }
      ]
    }
  ],
  "nodes": [
    {
      "name": "Torus_Knot001",
      "mesh": 0
    }
  ],
  "scene": 0,
  "scenes": [
    {
      "nodes": [
        0
      ]
    }
  ]
}
